<svg id="Ebene_1" data-name="Ebene 1" xmlns="http://www.w3.org/2000/svg" viewBox="0 0 640 448"><defs><style>.cls-1{fill:#fff;}</style></defs><title>users-solid</title><path class="cls-1" d="M96,224a64,64,0,1,0-64-64A64.06,64.06,0,0,0,96,224Zm448,0a64,64,0,1,0-64-64A64.06,64.06,0,0,0,544,224Zm32,32H512a63.81,63.81,0,0,0-45.1,18.6A146.27,146.27,0,0,1,542,384h66a32,32,0,0,0,32-32V320A64.06,64.06,0,0,0,576,256Zm-256,0A112,112,0,1,0,208,144,111.94,111.94,0,0,0,320,256Zm76.8,32h-8.3A157.53,157.53,0,0,1,320,304c-24.6,0-47.6-6-68.5-16h-8.3A115.23,115.23,0,0,0,128,403.2V432a48,48,0,0,0,48,48H464a48,48,0,0,0,48-48V403.2A115.23,115.23,0,0,0,396.8,288ZM173.1,274.6A63.81,63.81,0,0,0,128,256H64A64.06,64.06,0,0,0,0,320v32a32,32,0,0,0,32,32H97.9a146.64,146.64,0,0,1,75.2-109.4Z" transform="translate(0 -32)"/></svg>